<svg width="1538" height="1426" xmlns="http://www.w3.org/2000/svg" version="1.2">
 <title>DocMorris_Logo_2019-svg</title>

 <g>
  <title>Layer 1</title>
  <path fill="#002f6c" d="m796,1413.4c9.5,-3.8 19,-8.4 28.4,-12.5c3.4,-1.5 6.8,-3.4 10.3,-4.9c5.3,-2.7 10.2,-5 15.5,-7.6c5.3,-3 11,-5.7 16.3,-8.7c2.6,-1.5 5.3,-3 7.5,-4.2c93.2,-52.6 175.1,-124.9 239.1,-210.8c75.4,-101.8 125.4,-223.7 139.8,-349.8c14,-123.4 -3.1,-253.9 -60.7,-364.5c-40.9,-78.7 -104.5,-149.5 -183.7,-190.7c-43.9,-23.1 -93.5,-37.9 -143.9,-42.8c-91.3,-11 -183.7,13.2 -251.9,85.9c-30.3,32.2 -53.4,74.2 -65.6,124.9l-0.3,1.5l-1.2,5l-1.1,4.9l-1.2,4.9l-0.7,4.9l-0.8,4.9c-0.3,2.3 -0.7,5 -1.1,7.2c-0.8,4.6 -1.1,8.7 -1.5,13.3c-0.4,4.5 -0.4,9.1 -0.8,13.6c0,1.9 0,3.8 0,4.9c4.9,-121.5 105.3,-218.4 228.1,-218.4c126.1,0 228.4,102.2 228.4,228.3c0,34 -7.6,66.2 -20.8,95.4l-1.9,4.9c-45.5,124.5 -155.7,246.4 -289.8,297.9c-45.1,17 -92.8,26.8 -141.7,27.2c-8.7,0 -17.4,-0.4 -26.1,-0.7c-3.8,-0.4 -7.6,-0.4 -11.8,-0.8c-6.4,-0.4 -13.2,-1.1 -19.7,-1.9c-4.9,-0.7 -9.8,-1.5 -15.1,-2.3c-5.7,-0.7 -11.4,-1.9 -17.1,-3c-3.4,-0.4 -6.8,-1.1 -9.8,-1.9c-9.1,-1.9 -17.8,-3.8 -26.9,-6.4l-3.8,-1.2c-125.4,-34 -244,-114.6 -326.5,-216.8c-1.9,-2.3 -3.5,-4.2 -5,-6.5q-3.9,-5.1 -7.9,-10.2c-2.7,-3.4 -5,-6.8 -7.6,-10.2q-2.8,-4 -5.7,-8c-2.3,-3.4 -4.5,-6.4 -6.8,-9.8c-2.3,-3.8 -4.9,-7.6 -7.2,-11c-1.5,-2.3 -3,-4.9 -4.5,-7.2c-3.5,-5.3 -6.5,-11 -9.9,-16.2l-2.3,-3.8l-0.3,-0.4c-1.6,-2.7 -2.7,-4.9 -4.2,-7.6c-2.7,-4.9 -5.3,-9.8 -7.6,-14.7c-1.9,-3.8 -3.8,-8 -5.7,-11.8l-1.5,-3c-2.3,-5.3 -4.5,-11 -6.8,-16.7l-0.4,-1.1c3,426.6 500.4,828.2 767.1,870.6c8.3,-3.4 17,-6.4 25.4,-9.9l3,-2.2z" class="s0" fill-rule="evenodd" id="Layer"/>
  <path fill="#0077cc" d="m8.5,571.6l1.5,3c1.9,4.1 3.8,7.9 5.7,11.7c2.6,4.9 4.9,9.9 7.9,14.8c1.5,2.6 2.7,4.9 4.2,7.6l0.4,0.3l2.2,3.8c3.1,5.7 6.5,11 9.9,16.3c1.5,2.3 3,4.5 4.5,7.2c2.3,3.8 4.6,7.6 7.2,11c2.3,3.4 4.6,6.4 6.9,9.8c1.8,2.7 3.7,5.3 5.6,8.3c2.3,3.4 5,6.8 7.6,10.2q4,5.2 8,10.3c1.5,2.2 3.4,4.5 5.3,6.4c82.5,101.8 201.1,182.4 326.5,216.9l3.8,1.1c9.1,2.3 17.8,4.6 26.9,6.5c3.4,0.7 6.8,1.1 9.8,1.9c5.7,1.1 11.4,1.8 17.1,3c4.9,0.7 9.8,1.5 15.1,1.9c6.5,0.7 13.3,1.5 19.7,2.2c3.8,0.4 7.6,0.4 11.8,0.8c8.7,0.4 17.4,0.8 26.1,0.8c48.9,-0.4 96.6,-9.9 141.7,-27.3c134.1,-51.5 244.3,-173.4 289.8,-297.9l1.9,-4.9c-36,78.3 -115.6,132.9 -207.6,132.9c-84.1,0 -157.6,-45.5 -197.4,-113.2l-2.6,-4.6c-18.2,-32.5 -28.4,-70.4 -28.4,-110.1q0,-4 0,-8c0,-1.9 0,-9 0,-13.2c0,-4.6 0.3,-9.8 0.7,-14.4c0,-4.5 0.4,-8.3 0.8,-12.9c3,-32.1 11,-65.4 20.8,-96.1c14.8,-46.6 36.8,-90.8 64,-131c26.9,-40.1 59.5,-76.1 95.9,-107.8c17.4,-15.2 33.7,-27.7 47.7,-37.5c-75,-51.1 -165.2,-80.6 -262.9,-80.6c-77.7,0 -148.5,15.9 -211,45l-1.9,0.8c-2.6,1.1 -5.3,2.6 -8.3,3.7c-10.2,5.3 -20.5,10.6 -30.7,16.7l-0.4,0q-7.4,4.5 -14.8,9.1l-1.9,0.4l-0.3,0.3c-55,35.6 -101.6,81.8 -138.3,136.7c-16.7,24.2 -31.1,50.3 -43.6,77.6c-8.7,19.3 -16.6,39.3 -23.4,59.8l-0.4,1.1l-0.8,2.3l-1.1,3l-0.4,1.2c-1.1,3 -1.9,6 -2.6,9l-1.6,5.3c-3,10.3 -5.6,20.9 -8.3,31.5c-1.1,4.9 -2.3,10.2 -3.4,15.1l-0.8,4.2c-1.1,4.5 -1.9,9 -2.6,14l-0.4,1.5l-0.8,4.1c-5.6,34.5 -8.3,70.1 -8.3,106.8l0,3.8l0.4,1.1c2.6,5.7 4.9,11.4 7.6,16.7z" class="s1" fill-rule="evenodd" id="Layer"/>
  <path fill="#001c3d" d="m1031.3,0.4c-97.4,0 -187.9,29.9 -262.9,80.6c-14.1,9.8 -30.3,22.3 -47.8,37.5c-36.3,31.8 -68.5,67.7 -95.8,107.9c-27.3,40.5 -49.3,84.7 -64,130.9c-9.9,30.7 -17.5,64 -20.9,96.2c-0.3,4.5 -0.7,8.3 -0.7,12.8c0,4.6 -0.4,9.9 -0.8,14.4c0,3.8 0,11.4 0,13.3q0,3.9 0,7.9c0,40.1 10.3,77.6 28.4,110.2l2.7,4.5c39.8,67.8 113.2,113.2 197.3,113.2c92.1,0 171.6,-54.5 207.6,-132.9c13.3,-29.1 20.9,-61.3 20.9,-95c0,-126 -102.3,-228.2 -228.5,-228.2c-122.7,0 -223.1,96.9 -228,218.4c0,-1.2 0,-2.7 0.4,-5c0.4,-4.5 0.4,-9 0.7,-13.6c0.4,-4.5 0.8,-8.7 1.6,-13.2c0.3,-2.3 0.7,-4.9 1.1,-7.2l0.7,-4.9l0.8,-5l1.1,-4.9l1.2,-4.9l1.1,-4.9l0.4,-1.5c12.1,-50.8 35.2,-92.4 65.5,-124.9c68.2,-72.7 160.6,-96.9 252.3,-86.3c50.4,4.9 100,20 144,42.7c79.1,41.7 142.8,112.1 183.7,190.8c57.6,110.5 74.6,241.1 60.6,364.5c-14.4,126.1 -64.4,247.9 -139.8,349.8c-64,85.9 -145.8,158.2 -239,210.8c-2.7,1.5 -5.3,3 -7.6,4.2c-5.7,3 -11,6 -16.3,8.7c-4.9,2.6 -10.2,5.3 -15.1,7.5c-3.4,1.5 -6.9,3.4 -10.3,4.9c-9.4,4.2 -18.9,8.8 -28.4,12.5l-2.2,1.2c-8.4,3.4 -17.1,6.8 -25.4,9.8l2.6,-0.4l1.9,-0.3l1.2,-0.4l1.1,-0.4l3.8,-0.8l1.1,0l4.6,-0.7l0.7,-0.4l4.2,-1.1l0.7,0l4.6,-1.2l0.7,-0.3l0.8,-0.4l1.5,-0.4l2.7,-0.8l0.4,0l4.5,-1.1l0.4,0l0.4,0l0.3,0l4.2,-1.1l0.4,0l0.7,-0.4l4.6,-1.1l0.4,0l4.9,-1.6l1.1,-0.3l2.3,-0.8l2.3,-0.7l0.7,-0.4l0.4,0l0.4,0l0.4,0l1.1,-0.4l1.5,-0.4l2.3,-0.7l0.7,0l5,-1.6l1.9,-0.7l4.1,-1.5l0.4,0l1.1,-0.4l3.8,-1.5l0.8,-0.4l0.4,0l4.1,-1.5l1.9,-0.8l2.7,-1.1c2.3,-0.8 4.2,-1.5 6.4,-2.3l1.5,-0.7l0.8,-0.4l2.3,-1.1l3.4,-1.2l0.4,-0.4l4.9,-1.9l1.1,-0.3l0.4,-0.4l4.9,-1.9l0.4,0l0.4,0l3.8,-1.5l1.5,-0.8l1.5,-0.7l4.5,-1.9l0.4,-0.4l5.3,-2.3l0.4,-0.3c4.5,-1.9 9.1,-4.2 14,-6.5l0.8,-0.4l3.4,-1.5l0.4,0c4.9,-2.2 9.4,-4.5 14.4,-7.2l3.4,-1.9l2.6,-1.1l2.3,-1.1l3,-1.5l2.3,-1.2l3.8,-1.9l4.5,-2.2l0.4,-0.4l0.4,-0.4l0.7,-0.4c8.4,-4.5 16.7,-9.1 25,-14l1.2,-0.7c5.3,-3.1 11,-6.5 16.3,-9.9l1.1,-0.4l0.4,-0.3l1.1,-0.8c3.1,-1.5 5.7,-3.4 8.7,-5.3l2.3,-1.5l0.4,0l1.9,-1.1l0.7,-0.4c5.7,-3.4 11.4,-7.2 16.7,-11l0.4,0l1.1,-0.8l4.2,-2.6l0.4,0c8.7,-5.7 17,-11.7 25.7,-17.8l0.4,0c4.6,-3 9.1,-6.4 13.6,-9.5l0.4,-0.3l0.4,-0.4c3.8,-3 8,-5.7 11.7,-8.7l0.4,0l0.8,-0.4c12.5,-9.1 24.6,-18.6 36.7,-28.4c25.4,-20.1 50.4,-41.6 75,-64l0.8,-0.7c178,-164.3 326.1,-390.3 326.1,-623.1c-1.5,-302.4 -202.2,-548.4 -506,-548.4z" class="s2" fill-rule="evenodd" id="Layer"/>
 </g>
</svg>