<svg version="1.2" xmlns="http://www.w3.org/2000/svg" viewBox="0 0 1538 1426" width="1538" height="1426">
	<title>DocMorris_Logo_2019-svg</title>
	<style>
		.s0 { fill: #009659 } 
		.s1 { fill: #00d163 } 
		.s2 { fill: #00453d } 
	</style>
	<path id="Layer" fill-rule="evenodd" class="s0" d="m796 1413.4c9.5-3.8 19-8.4 28.4-12.5 3.4-1.5 6.8-3.4 10.3-4.9 5.3-2.7 10.2-5 15.5-7.6 5.3-3 11-5.7 16.3-8.7 2.6-1.5 5.3-3 7.5-4.2 93.2-52.6 175.1-124.9 239.1-210.8 75.4-101.8 125.4-223.7 139.8-349.8 14-123.4-3.1-253.9-60.7-364.5-40.9-78.7-104.5-149.5-183.7-190.7-43.9-23.1-93.5-37.9-143.9-42.8-91.3-11-183.7 13.2-251.9 85.9-30.3 32.2-53.4 74.2-65.6 124.9l-0.3 1.5-1.2 5-1.1 4.9-1.2 4.9-0.7 4.9-0.8 4.9c-0.3 2.3-0.7 5-1.1 7.2-0.8 4.6-1.1 8.7-1.5 13.3-0.4 4.5-0.4 9.1-0.8 13.6 0 1.9 0 3.8 0 4.9 4.9-121.5 105.3-218.4 228.1-218.4 126.1 0 228.4 102.2 228.4 228.3 0 34-7.6 66.2-20.8 95.4l-1.9 4.9c-45.5 124.5-155.7 246.4-289.8 297.9-45.1 17-92.8 26.8-141.7 27.2-8.7 0-17.4-0.4-26.1-0.7-3.8-0.4-7.6-0.4-11.8-0.8-6.4-0.4-13.2-1.1-19.7-1.9-4.9-0.7-9.8-1.5-15.1-2.3-5.7-0.7-11.4-1.9-17.1-3-3.4-0.4-6.8-1.1-9.8-1.9-9.1-1.9-17.8-3.8-26.9-6.4l-3.8-1.2c-125.4-34-244-114.6-326.5-216.8-1.9-2.3-3.5-4.2-5-6.5q-3.9-5.1-7.9-10.2c-2.7-3.4-5-6.8-7.6-10.2q-2.8-4-5.7-8c-2.3-3.4-4.5-6.4-6.8-9.8-2.3-3.8-4.9-7.6-7.2-11-1.5-2.3-3-4.9-4.5-7.2-3.5-5.3-6.5-11-9.9-16.2l-2.3-3.8-0.3-0.4c-1.6-2.7-2.7-4.9-4.2-7.6-2.7-4.9-5.3-9.8-7.6-14.7-1.9-3.8-3.8-8-5.7-11.8l-1.5-3c-2.3-5.3-4.5-11-6.8-16.7l-0.4-1.1c3 426.6 500.4 828.2 767.1 870.6 8.3-3.4 17-6.4 25.4-9.9z"/>
	<path id="Layer" fill-rule="evenodd" class="s1" d="m8.5 571.6l1.5 3c1.9 4.1 3.8 7.9 5.7 11.7 2.6 4.9 4.9 9.9 7.9 14.8 1.5 2.6 2.7 4.9 4.2 7.6l0.4 0.3 2.2 3.8c3.1 5.7 6.5 11 9.9 16.3 1.5 2.3 3 4.5 4.5 7.2 2.3 3.8 4.6 7.6 7.2 11 2.3 3.4 4.6 6.4 6.9 9.8 1.8 2.7 3.7 5.3 5.6 8.3 2.3 3.4 5 6.8 7.6 10.2q4 5.2 8 10.3c1.5 2.2 3.4 4.5 5.3 6.4 82.5 101.8 201.1 182.4 326.5 216.9l3.8 1.1c9.1 2.3 17.8 4.6 26.9 6.5 3.4 0.7 6.8 1.1 9.8 1.9 5.7 1.1 11.4 1.8 17.1 3 4.9 0.7 9.8 1.5 15.1 1.9 6.5 0.7 13.3 1.5 19.7 2.2 3.8 0.4 7.6 0.4 11.8 0.8 8.7 0.4 17.4 0.8 26.1 0.8 48.9-0.4 96.6-9.9 141.7-27.3 134.1-51.5 244.3-173.4 289.8-297.9l1.9-4.9c-36 78.3-115.6 132.9-207.6 132.9-84.1 0-157.6-45.5-197.4-113.2l-2.6-4.6c-18.2-32.5-28.4-70.4-28.4-110.1q0-4 0-8c0-1.9 0-9 0-13.2 0-4.6 0.3-9.8 0.7-14.4 0-4.5 0.4-8.3 0.8-12.9 3-32.1 11-65.4 20.8-96.1 14.8-46.6 36.8-90.8 64-131 26.9-40.1 59.5-76.1 95.9-107.8 17.4-15.2 33.7-27.7 47.7-37.5-75-51.1-165.2-80.6-262.9-80.6-77.7 0-148.5 15.9-211 45l-1.9 0.8c-2.6 1.1-5.3 2.6-8.3 3.7-10.2 5.3-20.5 10.6-30.7 16.7h-0.4q-7.4 4.5-14.8 9.1l-1.9 0.4-0.3 0.3c-55 35.6-101.6 81.8-138.3 136.7-16.7 24.2-31.1 50.3-43.6 77.6-8.7 19.3-16.6 39.3-23.4 59.8l-0.4 1.1-0.8 2.3-1.1 3-0.4 1.2c-1.1 3-1.9 6-2.6 9l-1.6 5.3c-3 10.3-5.6 20.9-8.3 31.5-1.1 4.9-2.3 10.2-3.4 15.1l-0.8 4.2c-1.1 4.5-1.9 9-2.6 14l-0.4 1.5-0.8 4.1c-5.6 34.5-8.3 70.1-8.3 106.8v3.8l0.4 1.1c2.6 5.7 4.9 11.4 7.6 16.7z"/>
	<path id="Layer" fill-rule="evenodd" class="s2" d="m1031.3 0.4c-97.4 0-187.9 29.9-262.9 80.6-14.1 9.8-30.3 22.3-47.8 37.5-36.3 31.8-68.5 67.7-95.8 107.9-27.3 40.5-49.3 84.7-64 130.9-9.9 30.7-17.5 64-20.9 96.2-0.3 4.5-0.7 8.3-0.7 12.8 0 4.6-0.4 9.9-0.8 14.4 0 3.8 0 11.4 0 13.3q0 3.9 0 7.9c0 40.1 10.3 77.6 28.4 110.2l2.7 4.5c39.8 67.8 113.2 113.2 197.3 113.2 92.1 0 171.6-54.5 207.6-132.9 13.3-29.1 20.9-61.3 20.9-95 0-126-102.3-228.2-228.5-228.2-122.7 0-223.1 96.9-228 218.4 0-1.2 0-2.7 0.4-5 0.4-4.5 0.4-9 0.7-13.6 0.4-4.5 0.8-8.7 1.6-13.2 0.3-2.3 0.7-4.9 1.1-7.2l0.7-4.9 0.8-5 1.1-4.9 1.2-4.9 1.1-4.9 0.4-1.5c12.1-50.8 35.2-92.4 65.5-124.9 68.2-72.7 160.6-96.9 252.3-86.3 50.4 4.9 100 20 144 42.7 79.1 41.7 142.8 112.1 183.7 190.8 57.6 110.5 74.6 241.1 60.6 364.5-14.4 126.1-64.4 247.9-139.8 349.8-64 85.9-145.8 158.2-239 210.8-2.7 1.5-5.3 3-7.6 4.2-5.7 3-11 6-16.3 8.7-4.9 2.6-10.2 5.3-15.1 7.5-3.4 1.5-6.9 3.4-10.3 4.9-9.4 4.2-18.9 8.8-28.4 12.5l-2.2 1.2c-8.4 3.4-17.1 6.8-25.4 9.8l2.6-0.4 1.9-0.3 1.2-0.4 1.1-0.4 3.8-0.8h1.1l4.6-0.7 0.7-0.4 4.2-1.1h0.7l4.6-1.2 0.7-0.3 0.8-0.4 1.5-0.4 2.7-0.8h0.4l4.5-1.1h0.4 0.4 0.3l4.2-1.1h0.4l0.7-0.4 4.6-1.1h0.4l4.9-1.6 1.1-0.3 2.3-0.8 2.3-0.7 0.7-0.4h0.4 0.4 0.4l1.1-0.4 1.5-0.4 2.3-0.7h0.7l5-1.6 1.9-0.7 4.1-1.5h0.4l1.1-0.4 3.8-1.5 0.8-0.4h0.4l4.1-1.5 1.9-0.8 2.7-1.1c2.3-0.8 4.2-1.5 6.4-2.3l1.5-0.7 0.8-0.4 2.3-1.1 3.4-1.2 0.4-0.4 4.9-1.9 1.1-0.3 0.4-0.4 4.9-1.9h0.4 0.4l3.8-1.5 1.5-0.8 1.5-0.7 4.5-1.9 0.4-0.4 5.3-2.3 0.4-0.3c4.5-1.9 9.1-4.2 14-6.5l0.8-0.4 3.4-1.5h0.4c4.9-2.2 9.4-4.5 14.4-7.2l3.4-1.9 2.6-1.1 2.3-1.1 3-1.5 2.3-1.2 3.8-1.9 4.5-2.2 0.4-0.4 0.4-0.4 0.7-0.4c8.4-4.5 16.7-9.1 25-14l1.2-0.7c5.3-3.1 11-6.5 16.3-9.9l1.1-0.4 0.4-0.3 1.1-0.8c3.1-1.5 5.7-3.4 8.7-5.3l2.3-1.5h0.4l1.9-1.1 0.7-0.4c5.7-3.4 11.4-7.2 16.7-11h0.4l1.1-0.8 4.2-2.6h0.4c8.7-5.7 17-11.7 25.7-17.8h0.4c4.6-3 9.1-6.4 13.6-9.5l0.4-0.3 0.4-0.4c3.8-3 8-5.7 11.7-8.7h0.4l0.8-0.4c12.5-9.1 24.6-18.6 36.7-28.4 25.4-20.1 50.4-41.6 75-64l0.8-0.7c178-164.3 326.1-390.3 326.1-623.1-1.5-302.4-202.2-548.4-506-548.4z"/>
</svg>